<?xml version="1.0"?>
<svg xmlns="http://www.w3.org/2000/svg" viewBox="0 0 64 64" width="512" height="512"><title>15 Garlic</title><g id="_15_Garlic" data-name="15 Garlic"><path d="M36.957,16.6a42.135,42.135,0,0,1,.029-12.439,1,1,0,0,0-1.434-1.058c-3.994,2-5.246,10.2-5.535,12.667a1.081,1.081,0,0,0-.007.127,1.056,1.056,0,0,0,.031.25A31.445,31.445,0,0,1,31,24a.978.978,0,0,0,.051.313A9.537,9.537,0,0,0,33.7,28.227a1.008,1.008,0,0,0,.688.273.871.871,0,0,0,.087,0,1,1,0,0,0,.715-.4C37.832,24.545,37.445,21.04,36.957,16.6Z" style="fill:#378e43"/><path d="M31.994,15.713c0-.025-.011-.051-.016-.075C29.766,7.158,24.811,3.358,24.6,3.2a1,1,0,0,0-1.53,1.171c.059.147,5.81,14.7,3.977,24.291a1,1,0,0,0,1.591.982c2.326-1.782,3.7-3.475,4.31-5.33A1.012,1.012,0,0,0,33,24,33.53,33.53,0,0,0,31.994,15.713Z" style="fill:#4daf4e"/><path d="M41.2,31.125a38.055,38.055,0,0,1-6.127-4.352,7.617,7.617,0,0,1-2.128-3.086,1,1,0,0,0-1.9,0,9.686,9.686,0,0,1-3.628,4.37C26.06,29.1,24.478,30.082,22.8,31.122,17.271,34.561,11,38.458,11,46c0,14.828,20.79,15,21,15s21-.172,21-15C53,38.463,46.733,34.564,41.2,31.125Z" style="fill:#cfd8dc"/><path d="M38.3,40.326a1,1,0,1,0,1.89-.652,23.554,23.554,0,0,0-3.382-6.265,1,1,0,1,0-1.614,1.182A21.6,21.6,0,0,1,38.3,40.326Z" style="fill:#90a4ae"/><path d="M41.142,51.01a1,1,0,0,0-1.132.848c-.819,5.732-6.927,6.957-7.985,7.127A12.688,12.688,0,0,1,22,46c0-6.921,3.885-11.423,7.007-15.04C31.149,28.478,33,26.333,33,24a1,1,0,0,0-2,0c0,1.59-1.625,3.473-3.507,5.653C24.331,33.317,20,38.336,20,46c0,12.688,11.7,14.962,11.821,14.983A.962.962,0,0,0,32,61H32a1.013,1.013,0,0,0,.122-.008c.088-.011,8.771-1.183,9.866-8.85A1,1,0,0,0,41.142,51.01Z" style="fill:#90a4ae"/></g></svg>
