<svg id="Layer_1" enable-background="new 0 0 52 52" height="512" viewBox="0 0 52 52" width="512" xmlns="http://www.w3.org/2000/svg"><g id="_x34_6"><g><g enable-background="new"><g><g><path d="m13.7 3.1c0 .2-.1.3-.2.4l-4.7 2.6c-.1.1-.3.1-.4 0-.3-.2-.6-.6-.6-1 0-.2.1-.3.2-.4l4.7-2.7c.1-.1.2-.1.4 0 .3.3.6.7.6 1.1z" fill="#aa6256"/></g></g></g></g><g><g enable-background="new"><g><g><path d="m8 4.7c.1-.1.2 0 .4 0 .3.3.6.7.6 1.1 0 .2-.1.3-.2.4l4.6-2.7c.1-.1.2-.2.2-.4 0-.4-.3-.8-.6-1-.1-.1-.2-.1-.3-.1z" fill="#dba660"/></g></g><g><g><path d="m8.4 4.8c-.3-.2-.6 0-.6.3 0 .4.3.8.6 1s.6 0 .6-.3c0-.4-.3-.8-.6-1z" fill="#aa6256"/></g></g></g></g><g><g><g enable-background="new"><g><g><path d="m12.5 6.2c-.1 0-.1 0-.2 0-.2.1-.3.3-.3.5 0 .1 0 .2.1.2l-2.5-1.4c-.1 0-.1-.1-.1-.2 0-.2.1-.4.3-.5.1-.1.2-.1.2 0z" fill="#f3f1fc"/></g></g><g><g><path d="m12.3 6.2c.2-.1.3 0 .3.2s-.1.4-.3.5-.3 0-.3-.2.1-.4.3-.5z" fill="#f9a83d"/></g></g></g></g><g><g enable-background="new"><g><g><path d="m15.1 4.6c-.1 0-.1 0-.2 0-.2.1-.3.3-.3.5 0 .1 0 .2.1.2l-2.5-1.4c-.1 0-.1-.1-.1-.2 0-.2.1-.4.3-.5.1-.1.2-.1.2 0z" fill="#f3f1fc"/></g></g><g><g><path d="m14.9 4.7c.2-.1.3 0 .3.2s-.1.4-.3.5-.3 0-.3-.2.2-.4.3-.5z" fill="#f9a83d"/></g></g></g></g></g><g><g><g><path d="m39.7 47.7c0 1.2-1 2.2-2.2 2.2s-2.2-1-2.2-2.2 1-2.2 2.2-2.2 2.2.9 2.2 2.2z" fill="#4c5c75"/></g></g><g><g><path d="m11.3 47.8c0 1.2 1 2.2 2.2 2.2s2.2-1 2.2-2.2c0-.9-.5-1.7-1.3-2-1.4-.7-3.1.3-3.1 2z" fill="#4c5c75"/></g></g><g><g><path d="m27.3 42.2c0 1.2-1 2.2-2.2 2.2s-2.2-1-2.2-2.2 1-2.2 2.2-2.2 2.2 1 2.2 2.2z" fill="#4c5c75"/></g></g><g><g><g><path d="m14.2 46.4c-.3.3-1.2.1-1.2-.2l3.7-22.8 1.2.2z" fill="#b0b8cf"/></g></g><g><g><path d="m36.6 46.4-3.7-22.8 1.2-.2 3.7 22.8c-.1.4-1 .5-1.2.2z" fill="#b0b8cf"/></g></g><g><g><path d="m25.7 40.6c-.1.3-1.1.3-1.3 0v-15.2h1.3z" fill="#b0b8cf"/></g></g></g></g><g><g enable-background="new"><g><g><path d="m37.7 23.7v1.7c0 1.8-1.2 3.7-3.6 5.1-4.9 2.8-12.7 2.8-17.6 0-2.5-1.4-3.7-3.3-3.7-5.1v-1.7c0-1.8 1.2-3.7 3.6-5.1 4.8-2.8 12.7-2.8 17.6 0 2.5 1.4 3.7 3.3 3.7 5.1z" fill="#1d2943"/></g></g></g></g><g><g enable-background="new"><g><g><path d="m37.7 23.7v1.7c0 1.8-1.2 3.7-3.6 5.1-4.9 2.8-12.7 2.8-17.6 0-2.5-1.4-3.7-3.3-3.7-5.1v-1.7c0 1.9 1.2 3.7 3.7 5.1 4.9 2.8 12.7 2.8 17.6 0 2.4-1.4 3.6-3.3 3.6-5.1z" fill="#1d2943"/></g></g><g><g><path d="m34.1 18.6c4.9 2.8 4.9 7.4.1 10.2-4.9 2.8-12.7 2.8-17.6 0s-4.9-7.4 0-10.2c4.7-2.8 12.6-2.8 17.5 0z" fill="#4c5c75"/></g></g></g></g><g><path d="m25.3 30.1c-9.7 0-17.6-7.9-17.6-17.6 0-2.6 1.7-5.2 5.1-7.2 6.9-4 18-4 24.9 0 3.3 1.9 5 4.3 5.2 6.8.6 8.9-7.2 18-17.6 18z" fill="#1d2943"/></g><g><path d="m25.3 30.1c-9.7 0-17.6-7.9-17.6-17.6 0-2.6 1.7-5.2 5.1-7.2 6.9-4 18-4 24.9 0 3.2 1.9 5 4.3 5.2 6.8.6 8.7-7 18-17.6 18z" fill="#1d2943"/></g><g><path d="m37.8 19.7c-6.9 4-18 4-24.9 0-3.5-2-5.2-4.6-5.2-7.2 0-2.6 1.7-5.2 5.1-7.2 6.9-4 18-4 24.9 0 6.9 3.9 7 10.4.1 14.4z" fill="#4c5c75"/></g><g><path d="m39.5 16c-.7.9-1.7 1.7-3 2.4-6.1 3.5-16.1 3.6-22.3 0-1.3-.7-2.3-1.6-3-2.5-2.3-2.8-1.9-6.5 3-9.4 6-3.5 16.1-3.5 22.2 0 4 2.3 5.9 6 3.1 9.5z" fill="#3c4b60"/></g><g><path d="m39.5 16c-.7.9-1.7 1.7-3 2.4-6.1 3.5-16.1 3.6-22.3 0-1.3-.7-2.3-1.6-3-2.5.7-.9 1.7-1.7 3-2.4 3-1.7 6.9-2.7 11.1-2.7 4.9 0 11.2 1.5 14.2 5.2z" fill="#fe90a9"/></g><g><path d="m36.3 6.4c-6.1-3.5-16.1-3.5-22.2 0-1.6.9-2.7 2-3.5 3.1-2.1 3.5-.1 6.8 3.5 8.9 5.5 3.2 13.9 3.4 19.9 1.1.8-.3 1.5-.7 2.2-1.1.4-.2.7-.5 1.1-.7 1-.7 1.8-1.5 2.3-2.4 2.5-3.4.3-6.8-3.3-8.9zm3.9 5.2-12.5-7.2c3.2.3 6.1 1.1 8.4 2.5 2.3 1.2 3.7 2.9 4.1 4.7zm-27-4 20.3 11.7c-1.2.4-2.4.8-3.8 1l-18.5-10.7c.5-.7 1.2-1.4 2-2zm-2.8 5.7 12.5 7.2c-3.2-.3-6.1-1.1-8.4-2.5-2.3-1.2-3.8-2.9-4.1-4.7zm13.5 7.3-13.6-7.9c-.1-1 .2-1.9.7-2.8l18 10.4c-1.8.4-3.4.4-5.1.3zm12.3-2.5c-.7.4-1.4.7-2.1 1l-20.5-11.8c.2-.2.5-.3.8-.5.7-.4 1.4-.7 2.1-1l20.5 11.8c-.3.2-.5.3-.8.5zm1.2-.8-20.3-11.7c1.2-.4 2.4-.8 3.8-1l18.5 10.7c-.5.7-1.2 1.4-2 2zm2.2-2.4-18-10.4c1.8-.3 3.4-.3 5.1-.2l13.6 7.9c.1.9-.1 1.7-.7 2.7z" fill="#fff"/></g><g><g><g enable-background="new"><g><g><path d="m40 22c-.1 0-.1 0-.2 0-.2.1-.3.3-.3.5 0 .1 0 .2.1.2l-2.5-1.4c-.1 0-.1-.1-.1-.2 0-.2.1-.4.3-.5.1-.1.2-.1.2 0z" fill="#f3f1fc"/></g></g><g><g><path d="m39.7 22c.2-.1.3 0 .3.2s-.1.4-.3.5-.3 0-.3-.2c0-.1.2-.4.3-.5z" fill="#f9a83d"/></g></g></g></g><g><g enable-background="new"><g><g><path d="m42.6 20.5c-.1 0-.1 0-.2 0-.2.1-.3.3-.3.5 0 .1 0 .2.1.2l-2.5-1.4c-.1 0-.1-.1-.1-.2 0-.2.1-.4.3-.5.1-.1.1-.1.2-.1z" fill="#f3f1fc"/></g></g><g><g><path d="m42.4 20.5c.2-.1.3 0 .3.2s-.1.4-.3.5-.3 0-.3-.2.1-.4.3-.5z" fill="#f9a83d"/></g></g></g></g><g><g enable-background="new"><g><g><path d="m44.3 21c0 .2-.1.3-.2.4l-4.6 2.6s0 0 .1-.1c-.1.1-.3.1-.5 0-.3-.2-.6-.6-.6-1 0-.2.1-.3.2-.4l4.6-2.7c.1-.1.2-.1.4 0 .4.4.6.8.6 1.2z" fill="#aa6256"/></g></g></g></g><g><g enable-background="new"><g><g><path d="m38.7 22.6c.1-.1.2 0 .4 0 .3.2.6.6.6 1 0 .2-.1.3-.2.4l4.6-2.7c.1-.1.2-.2.2-.4 0-.4-.3-.8-.6-1-.2-.1-.3-.1-.4 0z" fill="#dba660"/></g></g><g><g><path d="m39.1 22.7c-.3-.2-.6 0-.6.3 0 .4.3.8.6 1s.6 0 .6-.3c0-.4-.3-.8-.6-1z" fill="#aa6256"/></g></g></g></g></g><g><g fill="#df3260"><path d="m35.4 8.2c0-.1-.2-.2-.4-.1-.5.3-1.2.6-1.6.8-.2.1-1.5.7-1.6.7-1.1.4-3.3 1.3-4.4.7s-.1.1-.1.1h.1l.1.1c.5.4.5.9-.1 1.3-.1 0-.3.3-1.2.3-.4 0-.8-.1-1.2-.3-.6-.3-.7-1 0-1.4.6-.3 1.5-.4 2.1-.1v-.4c0 .1 0 .3.1.4s.1.1.1.1c.2-.4.8-1 1.1-1.3l.2-.1c.3-.3.7-.6 1.2-.9.3-.2 1-.7 1.5-.9 0 0 .1-.1.1-.1v-1.2c0-.1-.1-.1-.3-.1-1.2.1-2.5.3-3.8.6-1.1.2-2.3.4-3.3.8-.2.1-.7.2-.9.3-2.1.7-4 1.4-5.1 2-.1 0-.2.1-.3.2-.6.4-1.2.8-1.5 1.3h-.1s-.1.1-.1.1-.1.1-.1.1c0 .1-.1.2-.2.3-.2.4-.4.9-.3 1.4v1.1c0 1.1.8 2.3 2.2 3.2h.1s.1.1.2.1c2 1.1 4.8 1.4 7.3 1 .2 0 .4 0 .5-.1.7-.1 1.4-.4 2.1-.6.3-.1.6-.3.9-.4 1.2-.7 2.8-2 4.1-3.5v-.1.1c.1-.1.9-.9 1.7-2.1.5-.7.8-1.4.9-2zm-2.6 4.1s.1 0 0 0z"/><path d="m27.4 10.3c-.1.2-.3.5-.3.7v-1.1c0 .1 0 .3.1.4z"/></g><g><path d="m25 10.5v1.2c.6-.4 1.6-.4 2.3-.1v-1.2c-.7-.3-1.7-.3-2.3.1z" fill="#fe90a9"/></g><g><path d="m27.3 10.4v1.2l.1.1v-1.2z" fill="#fe90a9"/></g><g><path d="m27.4 10.5v1.2h.1v-1.1z" fill="#fe90a9"/></g><g><path d="m27.5 10.6v1.1l.1.1z" fill="#fe90a9"/></g><g><path d="m27.9 12.3c-.1-1 .2-1.3-.3-1.8v1.2c.2.2.3.4.3.6z" fill="#fe90a9"/></g><g><path d="m24.5 11.2v1.2c0-.3.2-.5.5-.7v-1.2c-.3.2-.5.4-.5.7z" fill="#fe90a9"/></g><g><path d="m24.5 12.4v-1.2z" fill="#f45170"/></g><g><path d="m32.7 13.6v-.1c.1 0 .1.1 0 .1z" fill="#df3260"/></g><g><path d="m32.9 12.3c-.1 0 0 0 0 0z" fill="#df3260"/></g><g><path d="m27.2 10.2c-.1-.1-.1-.3-.1-.4v.5h.1.1s0-.1.1-.1c-.1.1-.1.1-.2 0zm5.7 2.1c-.1 0 0 0 0 0z" fill="#df3260"/></g><g><path d="m31.2 6c-.5.3-1.1.7-1.5.9-.8.6-2.7 2-2.7 3v.5c.1 0 .2.1.2.1.2-.3.3-.6 1.2-1.4l.2-.1c.3-.3.7-.6 1.2-.9.3-.2 1-.7 1.5-.9 0 0 .1-.1.1-.1l-.2-1.1c.1-.1.1-.1 0 0z" fill="#df3260"/></g><g><path d="m15.4 12.8v1.2c0 1.1.8 2.3 2.2 3.2h.1s.1.1.2.1c2 1.1 4.8 1.4 7.3 1 .2 0 .4 0 .5-.1.7-.1 1.4-.4 2.1-.6.3-.1.6-.3.9-.4 1.2-.7 2.8-2 4.1-3.5v-.1.1c.3-.3 1.1-1.2 1.7-2.2.4-.7.8-1.4.9-2v-1.2c-.1.6-.5 1.3-.9 2-.6.9-1.5 2-1.6 2 0 0-.1.1-.1.1-.1.1-2.1 2.3-4.2 3.5-.3.2-.6.3-.9.4-.6.3-1.4.5-2.1.6-.2 0-.3.1-.5.1-2.5.4-5.3 0-7.3-1-.1 0-.1 0-.2-.1h-.1c-1.4-.8-2.1-2-2.1-3.1z" fill="#df3260"/></g><g><path d="m17.5 15.9c1.4 1 4.4 1.7 7.6 1.2h.3.3.1c.7-.1 1.3-.3 1.9-.6.3-.1.6-.3.9-.4 1.5-.9 3.7-2.9 4.1-3.5 0 0 .1-.1.1-.2.2-.2 1-1.1 1.6-2 .4-.7.8-1.4.9-2 0-.1-.2-.2-.4-.1-.5.2-1.2.6-1.6.8-.1.1-1.5.7-1.6.7-1.2.4-3.6 1.4-4.6.6-.7-.8 1.7-2.7 2.5-3.3.3-.2 1-.7 1.5-.9.1-.1 0-.2-.2-.2-1.2.1-2.5.3-3.8.6-.9-.1-2.1.2-3.1.6-.2.1-.7.2-.9.3-2.1.7-4 1.4-5.1 2-.1 0-.2.1-.3.1-.7.4-1.2.8-1.5 1.3l-.1.1s-.1.1-.1.1-.1.1-.1.1c0 .1-.1.2-.1.3-.9 1.5-.3 3.2 1.7 4.4zm7.5-4c-.7-.4-.7-1 0-1.4.6-.3 1.6-.4 2.2-.1.1.1 0 0 .2.1l.1.1c.5.4.5.9-.1 1.3-.1 0-.4.3-1.2.3-.4 0-.9-.1-1.2-.3z" fill="#f45170"/></g><g><g enable-background="new"><g><g><path d="m24.4 11.3c0 .1.1.3.5.5-.3-.2-.5-.3-.5-.5z" fill="#808080"/></g></g><g><g><path d="m27.9 10.9s-.1-.1-.1-.2c-.1-.1-.1-.1-.2-.3-.1 0-.1-.1-.3-.1 0 0-.1 0-.2-.1l-.2-.1c-.2-.1-.4-.1-.7-.1h-.2c-.5 0-1 .1-1.4.3-.8.5-.7 1.1-.1 1.5-.1.1-5.9 3.4-5.8 3.3l-1.3.7s.1 0 .1.1c.1-.1 2.7-1.5 2.6-1.5.1-.1 1.6-.9 1.5-.9 1-.6 3.1-1.8 3-1.7.3.2.8.3 1.3.3.8 0 1.9-.4 1.9-1.1zm-.6.8c0 .1-.1.1 0 0-.1.1-.1.1 0 0-.4.2-.7.3-1.3.3-.4 0-.7-.1-1-.2-.2-.1-.1-.1-.2-.1-.2-.2-.5-.4-.5-.7s.2-.5.5-.7c.6-.3 1.6-.4 2.3-.1h.1l.1.1c.6.6.5 1.1 0 1.4z" fill="#fe90a9"/></g></g><g><g><path d="m31.6 9.7c.7.7 1.1 2 1 2.8 0 0 .2-.2.2-.3 0-.8-.4-1.9-1.1-2.6 0 0-.1.1-.1.1z" fill="#fe90a9"/></g></g><g><g><path d="m27.1 10.2c.1 0 .1 0 .2.1-.1-.1-.2-.1-.2-.1-.1-.1-.1-.1-.2-.1-.7-.3-1.5-.4-2.3-.4-1 0-2.1.2-2.9.7-1.5.9-1.6 2.3-.1 3.2l.2-.1c-1.4-.9-1.4-2.2.1-3.1 1.2-.7 3-.8 4.4-.4.2 0 .4.1.7.1z" fill="#fe90a9"/></g></g><g><g><path d="m27.3 8.9.1-.1c-.1 0-1.2-.4-2.8-.4s-3.1.4-4.3 1c-2.4 1.4-2.4 3.6-.1 5l.2-.1c-1.1-.6-1.6-1.5-1.6-2.4s.6-1.8 1.7-2.4c1.7-1 4.4-1.3 6.8-.6z" fill="#fe90a9"/></g></g><g><g><path d="m27.2 13.5c-1.5.8-3.8.9-5.3 0l-.2.1c1.6.9 4.1.8 5.6 0 1.5-.9 1.6-2.2.3-3.1h-.1.1c.2.2.3.3.3.5.7.8.5 1.8-.7 2.5z" fill="#fe90a9"/></g></g><g><g><path d="m15.7 11.5c.2 1.3 1.3 2.6 3.1 3.7l.2-.1c-1.8-1.1-2.9-2.7-3-4 0 0-.1.1-.1.1-.1.1-.1.2-.2.3z" fill="#fe90a9"/></g></g><g><g><path d="m20.3 14.5c2.4 1.3 6.2 1.3 8.6 0 1.9-1.1 2.4-2.8 1.1-4.2-.1 0-.2 0-.2.1 1.3 1.3.9 3-1 4.1-2.3 1.3-6 1.3-8.3 0z" fill="#fe90a9"/></g></g><g><g><path d="m19 15.3c1.5.9 4.3 1.6 6.4 1.8h.3.1c-2.1-.2-5.1-.9-6.7-1.8z" fill="#fe90a9"/></g></g></g><g><g><path d="m23.4 7.3c2.8-.2 4.7.5 4.9.5l.1-.1c-.5-.1-1.7-.6-3.9-.6-.2 0-.4 0-.6 0 0 .1.2 0-.5.2z" fill="#fe90a9"/></g></g></g></g></g></svg>