<?xml version="1.0" encoding="iso-8859-1"?>
<!-- Generator: Adobe Illustrator 19.0.0, SVG Export Plug-In . SVG Version: 6.00 Build 0)  -->
<svg xmlns="http://www.w3.org/2000/svg" xmlns:xlink="http://www.w3.org/1999/xlink" version="1.1" id="Layer_1" x="0px" y="0px" viewBox="0 0 512 512" style="enable-background:new 0 0 512 512;" xml:space="preserve" width="512" height="512">
<g id="XMLID_1266_">
	<g id="XMLID_820_">
		<path id="XMLID_1431_" d="M502,34H374.865c-5.522,0-10,4.478-10,10s4.478,10,10,10H492v20H304.865V57.703    c0-18.748-15.252-34-34-34c-3.109,0-6.119,0.428-8.982,1.213C257.898,10.566,244.727,0,229.125,0H184c-18.748,0-34,15.252-34,34    H10C4.478,34,0,38.478,0,44v40c0,5.522,4.478,10,10,10h39.25v3.606c0,5.522,4.478,10,10,10s10-4.478,10-10V94H150v23.09    c0,9.359,3.801,17.846,9.94,24c-6.139,6.154-9.94,14.641-9.94,24v72c0,9.477,3.901,18.056,10.176,24.228    C153.901,267.489,150,276.068,150,285.545v72c0,9.477,3.901,18.056,10.176,24.228C153.901,387.944,150,396.523,150,406v72    c0,18.748,15.252,34,34,34c16.673,0,30.774-11.921,33.53-28.345c0.914-5.446-2.761-10.603-8.208-11.517    c-5.442-0.91-10.602,2.761-11.517,8.208C196.673,487.099,190.867,492,184,492c-7.72,0-14-6.28-14-14v-72c0-7.72,6.28-14,14-14    c6.867,0,12.674,4.901,13.806,11.654c0.913,5.447,6.063,9.12,11.516,8.209c5.447-0.913,9.122-6.069,8.209-11.516    c-1.227-7.318-4.711-13.739-9.667-18.613c6.252-6.169,10.137-14.733,10.137-24.19v-72c0-9.477-3.901-18.056-10.176-24.228    C214.099,255.146,218,246.566,218,237.09v-72c0-9.359-3.801-17.846-9.94-24c6.139-6.154,9.94-14.641,9.94-24V94h18.865v35.703    c0,9.435,3.866,17.983,10.093,24.148c-6.228,6.166-10.093,14.713-10.093,24.148v72c0,18.748,15.252,34,34,34s34-15.252,34-34v-72    c0-9.435-3.866-17.983-10.093-24.148c6.228-6.166,10.093-14.713,10.093-24.148V94H412v9.552c0,5.522,4.478,10,10,10    s10-4.478,10-10V94h70c5.522,0,10-4.478,10-10V44C512,38.478,507.522,34,502,34z M284.865,57.703v72c0,7.72-6.28,14-14,14    s-14-6.28-14-14v-72c0-7.72,6.28-14,14-14S284.865,49.983,284.865,57.703z M184,20h45.125c7.72,0,14,6.28,14,14s-6.28,14-14,14    H184c-7.72,0-14-6.28-14-14S176.28,20,184,20z M198,165.09v72c0,7.72-6.28,14-14,14s-14-6.28-14-14v-72c0-7.72,6.28-14,14-14    S198,157.37,198,165.09z M184,271.545c7.72,0,14,6.28,14,14v72c0,7.72-6.28,14-14,14s-14-6.28-14-14v-72    C170,277.825,176.28,271.545,184,271.545z M198,117.09c0,7.72-6.28,14-14,14s-14-6.28-14-14V94h28V117.09z M20,74V54h136.528    c6.189,8.478,16.195,14,27.472,14h45.125c2.663,0,5.252-0.318,7.74-0.899V74H20z M284.865,250c0,7.72-6.28,14-14,14    s-14-6.28-14-14v-72c0-7.72,6.28-14,14-14s14,6.28,14,14V250z"/>
		<path id="XMLID_1493_" d="M449.908,178.617c0-10.122-7.936-18.404-17.908-19.007V147c0-5.522-4.478-10-10-10s-10,4.478-10,10    v12.61c-9.973,0.603-17.908,8.885-17.908,19.007v51.438c-40.069,44.79-62.091,102.36-62.091,162.56v24.965    c0,0.016-0.001,0.032-0.001,0.048C332,448.116,371.533,472,422,472c50.466,0,89.999-23.883,90-54.371c0,0,0,0,0,0v-25.014    c0-60.199-22.022-117.77-62.092-162.561V178.617z M414.092,223.92v-44.368h15.816v44.368H414.092z M422,452    c-41.244,0-69.988-18.108-70-34.363c0-0.003,0-0.006,0-0.009v-0.019c0.021-16.253,28.762-34.354,69.999-34.354    c41.252,0,70,18.114,70,34.372S463.252,452,422,452z M491.784,382.917C475.407,370.84,450.44,363.255,422,363.255    c-28.439,0-53.406,7.585-69.783,19.662c2.21-51.489,21.983-100.373,56.32-138.997h26.927    C469.801,282.544,489.573,331.428,491.784,382.917z"/>
		<path id="XMLID_1528_" d="M426,400h-7.333c-5.522,0-10,4.478-10,10s4.478,10,10,10H426c5.522,0,10-4.478,10-10    S431.522,400,426,400z"/>
		<path id="XMLID_1549_" d="M69.25,144.861V135c0-5.522-4.478-10-10-10s-10,4.478-10,10v9.861C21.327,149.63,0,173.988,0,203.25    v168.999c0,32.671,26.579,59.25,59.25,59.25s59.25-26.579,59.25-59.25V203.25C118.5,173.988,97.173,149.63,69.25,144.861z     M20,362.249v-36.333h78.5v36.333H20z M98.5,213.25v36.333H20V213.25H98.5z M20,269.583h78.5v36.333H20V269.583z M59.25,164    c18.188,0,33.521,12.436,37.955,29.25H21.295C25.729,176.436,41.063,164,59.25,164z M59.25,411.499    c-18.188,0-33.521-12.436-37.955-29.25h75.909C92.771,399.063,77.438,411.499,59.25,411.499z"/>
		<path id="XMLID_1554_" d="M334.87,54c2.63,0,5.199-1.07,7.069-2.931c1.86-1.859,2.931-4.439,2.931-7.069s-1.07-5.21-2.931-7.07    C340.08,35.069,337.5,34,334.87,34c-2.641,0-5.221,1.069-7.08,2.93c-1.86,1.86-2.931,4.44-2.931,7.07s1.07,5.21,2.931,7.069    C329.66,52.93,332.229,54,334.87,54z"/>
		<path id="XMLID_1555_" d="M208,432c-2.63,0-5.21,1.069-7.07,2.93S198,439.37,198,442s1.069,5.21,2.93,7.069    c1.86,1.86,4.44,2.931,7.07,2.931s5.21-1.07,7.069-2.931C216.93,447.21,218,444.63,218,442s-1.07-5.21-2.931-7.07    C213.21,433.069,210.63,432,208,432z"/>
	</g>
</g>















</svg>
