<svg id="Capa_1" enable-background="new 0 0 498.83 498.83" height="512" viewBox="0 0 498.83 498.83" width="512" xmlns="http://www.w3.org/2000/svg"><g fill="#fe99a0"><path d="m223.506 328.494-71.228 19.11 13.852 33.735 21.44 44c.71 1.45 2.18 2.37 3.8 2.37h31.52c2.25 0 4.1-1.76 4.22-4.01l2.96-58.24z"/><path d="m394.34 356.368-6.26-21.41c.021-.58-8.656-19.724-8.656-19.724l-55.641 17.629 6.227 27.425.82 26.08-15.26 36.23c-1.03 2.43.75 5.11 3.39 5.11h29.67c2.35 0 4.56-1.13 5.94-3.04l36.74-50.79c3.66-5.05 4.78-11.52 3.03-17.51z"/><path d="m113.24 146.125v-8.924c0-6.766-5.485-12.25-12.25-12.25h-41.172c-2.551 0-4.619 2.068-4.619 4.619v14.143c0 16.565 13.429 29.995 29.994 29.995l18.942 5.755 12.096-14.914z"/><path d="m467.604 173.174c-1.815 0-3.637-.655-5.077-1.982l-22.982-21.156c-4.5-4.041-7.213-9.913-7.377-16.05-.164-6.138 2.231-12.147 6.572-16.489 8.761-8.759 23.015-8.76 31.775-.001l.899.899c1.373 1.374 3.2 2.131 5.143 2.131s3.769-.757 5.142-2.13c1.374-1.374 2.131-3.201 2.131-5.144s-.757-3.769-2.13-5.142l-11.878-11.877c-6.315-6.318-6.315-16.596 0-22.913 2.927-2.93 7.676-2.933 10.606-.001 2.929 2.928 2.93 7.677.001 10.606-.469.469-.469 1.232 0 1.701l11.877 11.876c4.206 4.206 6.523 9.8 6.523 15.749s-2.316 11.543-6.523 15.75c-4.206 4.206-9.8 6.523-15.749 6.523s-11.543-2.316-15.75-6.523l-.899-.899c-2.91-2.911-7.649-2.913-10.562 0-1.464 1.464-2.239 3.411-2.185 5.481.056 2.069.935 3.971 2.475 5.354l23.049 21.218c3.048 2.805 3.244 7.55.438 10.597-1.478 1.607-3.495 2.422-5.519 2.422z"/></g><path d="m491.97 358.728c2.31 5.79 1.61 12.35-1.87 17.52l-33.61 49.97c-.63.93-1.68 1.49-2.8 1.49h-40.37c-2.35 0-3.98-2.36-3.15-4.56l23.104-61.296c.627-1.662 0-3.536-1.5-4.487l-36.795-23.337c-1.406-.892-3.179-.974-4.662-.215l-2.238 1.145-19.65 10.06c-12.4 6.35-25.26 11.44-38.42 15.27-19.87 5.79-40.4 8.69-60.95 8.69-13.04 0-26.09-1.17-38.99-3.52-13.096-2.373-26.036-5.966-38.65-10.773-3.716-1.416-7.918-.373-10.506 2.647l-12.313 14.366c-.68.79-1.14 1.76-1.31 2.79l-1.16 6.85-7.21 42.56c-.37 2.2-2.28 3.81-4.51 3.81h-36c-2.63 0-4.73-2.22-4.57-4.86l4.651-76.333c.18-2.957-1.932-5.56-4.862-5.994l-75.159-11.123h-29.19c-5.125 0-9.28-4.155-9.28-9.28v-36c0-5.125 4.155-9.28 9.28-9.28h21.26l28.27-59.48c10.79-22.7 26.54-42.68 46.08-58.48 14.93-12.07 31.71-21.4 49.55-27.71 17.85-6.31 36.76-9.6 55.96-9.6h197.59c12.89 0 25.31 4.76 34.9 13.37l40.5 36.39c7.81 7.01 12.27 17.02 12.27 27.52v72.04c0 17.753-6.43 34.89-18.046 48.251-.912 1.049-1.19 2.505-.676 3.796z" fill="#ffc4c8"/><path d="m38.016 298.65c14.894 0 28.459-8.572 34.852-22.024l17.802-37.456c10.79-22.7 26.54-42.68 46.08-58.48 14.93-12.07 31.71-21.4 49.55-27.71 17.85-6.31 36.76-9.6 55.96-9.6h197.59c6.337 0 12.559 1.156 18.388 3.349l-15.348-13.791c-9.59-8.61-22.01-13.37-34.9-13.37h-197.59c-19.2 0-38.11 3.29-55.96 9.6-17.84 6.31-34.62 15.64-49.55 27.71-19.54 15.8-35.29 35.78-46.08 58.48l-28.27 59.48h-21.26c-5.125 0-9.28 4.155-9.28 9.28v14.532z" fill="#fdb4ba"/><path d="m23.039 274.838v25.235c0 4.143 3.358 7.5 7.5 7.5s7.5-3.357 7.5-7.5v-25.238c0-2.989-1.752-5.561-4.281-6.767l-3.218 6.77z" fill="#fe99a0"/><path d="m475.5 397.958-19.01 28.26c-.63.93-1.68 1.49-2.8 1.49h-40.37c-2.35 0-3.98-2.36-3.15-4.56l9.49-25.19z" fill="#918291"/><path d="m373.64 398.298-19.07 26.37c-1.38 1.91-3.59 3.04-5.94 3.04h-29.67c-2.64 0-4.42-2.68-3.39-5.11l10.38-24.64z" fill="#918291"/><path d="m228.42 397.968-1.31 25.73c-.12 2.25-1.97 4.01-4.22 4.01h-31.52c-1.62 0-3.09-.92-3.8-2.37l-12.97-26.61 53.61-.77z" fill="#918291"/><path d="m163.54 396.638-4.62 27.26c-.37 2.2-2.28 3.81-4.51 3.81h-36c-2.63 0-4.73-2.22-4.57-4.86l1.6-26.26h47.83z" fill="#918291"/><path d="m213 173.918v24.235c0 6.774-5.491 12.265-12.265 12.265h-15.775c-16.569 0-30-13.431-30-30v-14.13c0-2.56 2.07-4.62 4.62-4.62h41.17c6.765 0 12.25 5.485 12.25 12.25z" fill="#fe99a0"/><path d="m96.206 274.52c-4.142 0-7.5-3.357-7.5-7.5v-15.528c0-4.143 3.358-7.5 7.5-7.5s7.5 3.357 7.5 7.5v15.528c0 4.143-3.358 7.5-7.5 7.5z" fill="#918291"/></svg>