<svg height="512pt" viewBox="0 0 512.00103 512" width="512pt" xmlns="http://www.w3.org/2000/svg"><path d="m77.265625 376.015625c-4.105469.796875-22.367187 4.738281-25.59375 5.75-19.882813 6.226563-53.835937 26.296875-51.5625 34.613281 2.347656 8.585938 40.960937 3.953125 45.078125 11.613282 4.191406 7.789062-34.605469 51.960937-28.84375 58.554687 5.792969 6.632813 53.949219-25.167969 61.066406-19.984375 7.082032 5.164062-2.253906 41.710938 5.882813 45.210938 8.007812 3.4375 34.601562-33.023438 41.539062-46.078126 4.074219-7.664062 9.523438-21.914062 11.152344-29.929687zm0 0" fill="#c62430"/><path d="m504.984375 244.542969-168.855469 168.351562c-65.792968 65.597657-172.460937 65.597657-238.253906 0-65.789062-65.59375-65.789062-171.949219 0-237.542969l168.855469-168.355468zm0 0" fill="#e5646e"/><path d="m266.730469 6.996094 181.59375 237.546875-168.855469 168.351562c-25.664062 25.585938-57.546875 41.191407-90.796875 46.816407 51.992187 8.796874 107.328125-6.808594 147.457031-46.816407l168.851563-168.351562zm0 0" fill="#da2f3c"/><path d="m429.976562 81.78125c66.011719 65.816406 98.871094 139.757812 73.398438 165.15625s-99.636719-7.367188-165.648438-73.179688c-66.011718-65.816406-98.875-139.757812-73.398437-165.15625 25.472656-25.398437 99.636719 7.363282 165.648437 73.179688zm0 0" fill="#ffc6bd"/><g fill="#fff7d7"><path d="m343.609375 20.832031c7.03125 6.984375 9.234375 16.109375 4.925781 20.375-4.3125 4.269531-13.503906 2.066407-20.535156-4.914062-7.027344-6.984375-9.230469-16.105469-4.921875-20.375 4.3125-4.269531 13.503906-2.066407 20.53125 4.914062zm0 0"/><path d="m407.480469 172.269531c7.03125 6.984375 9.234375 16.105469 4.925781 20.375-4.3125 4.269531-13.503906 2.066407-20.53125-4.917969-7.03125-6.980468-9.234375-16.105468-4.925781-20.371093 4.3125-4.269531 13.503906-2.070313 20.53125 4.914062zm0 0"/><path d="m455.042969 138.324219c-7.226563 7.15625-3.53125 22.445312 8.25 34.152343 11.785156 11.707032 27.191406 15.394532 34.417969 8.242188 0 0 1.324218-.8125 2.832031-2.171875-5.792969-12.839844-13.667969-26.589844-23.390625-40.699219-1.128906-.523437-2.289063-1.042968-3.484375-1.546875-7.261719-3.066406-14.414063-2.144531-18.625 2.023438zm0 0"/><path d="m358.519531 92.085938c11.496094 11.425781 15.101563 26.347656 8.050781 33.332031-7.050781 6.984375-22.089843 3.382812-33.589843-8.042969s-15.105469-26.351562-8.050781-33.332031c7.050781-6.984375 22.089843-3.382813 33.589843 8.042969zm0 0"/></g><path d="m208.988281 425.859375c-9.863281 0-16.304687-.867187-17.136719-.988281-4.226562-.601563-7.160156-4.515625-6.554687-8.738282.601563-4.222656 4.507813-7.160156 8.730469-6.558593.761718.105469 61.878906 8.097656 102.785156-30.90625 3.085938-2.945313 7.976562-2.828125 10.921875.257812 2.945313 3.089844 2.828125 7.980469-.257813 10.925781-32.667968 31.148438-75.15625 36.007813-98.488281 36.007813zm0 0" fill="#c62430"/></svg>